<svg id="visual" viewBox="0 0 900 900" width="900" height="900" xmlns="http://www.w3.org/2000/svg" xmlns:xlink="http://www.w3.org/1999/xlink" version="1.1"><rect x="0" y="0" width="900" height="900" fill="#001220"></rect><path d="M0 570L21.5 566.5C43 563 86 556 128.8 568.8C171.7 581.7 214.3 614.3 257.2 630.3C300 646.3 343 645.7 385.8 628.7C428.7 611.7 471.3 578.3 514.2 573.2C557 568 600 591 642.8 606.5C685.7 622 728.3 630 771.2 639.8C814 649.7 857 661.3 878.5 667.2L900 673L900 901L878.5 901C857 901 814 901 771.2 901C728.3 901 685.7 901 642.8 901C600 901 557 901 514.2 901C471.3 901 428.7 901 385.8 901C343 901 300 901 257.2 901C214.3 901 171.7 901 128.8 901C86 901 43 901 21.5 901L0 901Z" fill="#ffffff"></path><path d="M0 667L21.5 666.7C43 666.3 86 665.7 128.8 660.7C171.7 655.7 214.3 646.3 257.2 653C300 659.7 343 682.3 385.8 693.3C428.7 704.3 471.3 703.7 514.2 685C557 666.3 600 629.7 642.8 611.3C685.7 593 728.3 593 771.2 602.2C814 611.3 857 629.7 878.5 638.8L900 648L900 901L878.5 901C857 901 814 901 771.2 901C728.3 901 685.7 901 642.8 901C600 901 557 901 514.2 901C471.3 901 428.7 901 385.8 901C343 901 300 901 257.2 901C214.3 901 171.7 901 128.8 901C86 901 43 901 21.5 901L0 901Z" fill="#cbe5da"></path><path d="M0 676L21.5 681.8C43 687.7 86 699.3 128.8 708.3C171.7 717.3 214.3 723.7 257.2 715.5C300 707.3 343 684.7 385.8 674.7C428.7 664.7 471.3 667.3 514.2 678.2C557 689 600 708 642.8 715.7C685.7 723.3 728.3 719.7 771.2 717.2C814 714.7 857 713.3 878.5 712.7L900 712L900 901L878.5 901C857 901 814 901 771.2 901C728.3 901 685.7 901 642.8 901C600 901 557 901 514.2 901C471.3 901 428.7 901 385.8 901C343 901 300 901 257.2 901C214.3 901 171.7 901 128.8 901C86 901 43 901 21.5 901L0 901Z" fill="#96cab7"></path><path d="M0 791L21.5 782C43 773 86 755 128.8 751.8C171.7 748.7 214.3 760.3 257.2 772.3C300 784.3 343 796.7 385.8 792.8C428.7 789 471.3 769 514.2 765.2C557 761.3 600 773.7 642.8 771.7C685.7 769.7 728.3 753.3 771.2 756.7C814 760 857 783 878.5 794.5L900 806L900 901L878.5 901C857 901 814 901 771.2 901C728.3 901 685.7 901 642.8 901C600 901 557 901 514.2 901C471.3 901 428.7 901 385.8 901C343 901 300 901 257.2 901C214.3 901 171.7 901 128.8 901C86 901 43 901 21.5 901L0 901Z" fill="#5eaf94"></path><path d="M0 797L21.5 803.5C43 810 86 823 128.8 831.7C171.7 840.3 214.3 844.7 257.2 840.8C300 837 343 825 385.8 824.3C428.7 823.7 471.3 834.3 514.2 842C557 849.7 600 854.3 642.8 856.3C685.7 858.3 728.3 857.7 771.2 857.2C814 856.7 857 856.3 878.5 856.2L900 856L900 901L878.5 901C857 901 814 901 771.2 901C728.3 901 685.7 901 642.8 901C600 901 557 901 514.2 901C471.3 901 428.7 901 385.8 901C343 901 300 901 257.2 901C214.3 901 171.7 901 128.8 901C86 901 43 901 21.5 901L0 901Z" fill="#009473"></path></svg>