<?xml version="1.0" encoding="UTF-8" standalone="no" ?>
<!DOCTYPE svg PUBLIC "-//W3C//DTD SVG 1.1//EN" "http://www.w3.org/Graphics/SVG/1.1/DTD/svg11.dtd">
<svg xmlns="http://www.w3.org/2000/svg" xmlns:xlink="http://www.w3.org/1999/xlink" version="1.1" width="1080" height="1080" viewBox="0 0 1080 1080" xml:space="preserve">
<desc>Created with Fabric.js 5.2.4</desc>
<defs>
</defs>
<rect x="0" y="0" width="100%" height="100%" fill="transparent"></rect>
<g transform="matrix(1 0 0 1 540 540)" id="c5b283bc-7eba-4351-a77c-edeb2e8d16e9"  >
<rect style="stroke: none; stroke-width: 1; stroke-dasharray: none; stroke-linecap: butt; stroke-dashoffset: 0; stroke-linejoin: miter; stroke-miterlimit: 4; fill: rgb(255,255,255); fill-rule: nonzero; opacity: 1; visibility: hidden;" vector-effect="non-scaling-stroke"  x="-540" y="-540" rx="0" ry="0" width="1080" height="1080" />
</g>
<g transform="matrix(1 0 0 1 540 540)" id="9dfceb60-17b1-4479-8066-bb9693b1b734"  >
</g>
<g transform="matrix(1 0 0 1 540 540)"  >
<g style="" vector-effect="non-scaling-stroke"   >
		<g transform="matrix(1 0 0 1 0 -0.5)"  >
<rect style="stroke: none; stroke-width: 1; stroke-dasharray: none; stroke-linecap: butt; stroke-dashoffset: 0; stroke-linejoin: miter; stroke-miterlimit: 4; fill: rgb(53,56,57); fill-rule: nonzero; opacity: 1;" vector-effect="non-scaling-stroke"  x="-125" y="-125" rx="0" ry="0" width="250" height="250" />
</g>
		<g transform="matrix(1 0 0 1 0 72.5)"  >
<path style="stroke: none; stroke-width: 1; stroke-dasharray: none; stroke-linecap: butt; stroke-dashoffset: 0; stroke-linejoin: miter; stroke-miterlimit: 4; fill: rgb(255,255,255); fill-rule: nonzero; opacity: 1;" vector-effect="non-scaling-stroke"  transform=" translate(-125, -198)" d="M 0 171 L 36 179 L 71 163 L 107 145 L 143 171 L 179 168 L 214 157 L 250 145 L 250 251 L 214 251 L 179 251 L 143 251 L 107 251 L 71 251 L 36 251 L 0 251 Z" stroke-linecap="round" />
</g>
		<g transform="matrix(1 0 0 1 0 83.5)"  >
<path style="stroke: none; stroke-width: 1; stroke-dasharray: none; stroke-linecap: butt; stroke-dashoffset: 0; stroke-linejoin: miter; stroke-miterlimit: 4; fill: rgb(203,229,218); fill-rule: nonzero; opacity: 1;" vector-effect="non-scaling-stroke"  transform=" translate(-125, -209)" d="M 0 199 L 36 188 L 71 173 L 107 176 L 143 191 L 179 197 L 214 174 L 250 167 L 250 251 L 214 251 L 179 251 L 143 251 L 107 251 L 71 251 L 36 251 L 0 251 Z" stroke-linecap="round" />
</g>
		<g transform="matrix(1 0 0 1 0 91.5)"  >
<path style="stroke: none; stroke-width: 1; stroke-dasharray: none; stroke-linecap: butt; stroke-dashoffset: 0; stroke-linejoin: miter; stroke-miterlimit: 4; fill: rgb(150,202,183); fill-rule: nonzero; opacity: 1;" vector-effect="non-scaling-stroke"  transform=" translate(-125, -217)" d="M 0 197 L 36 189 L 71 192 L 107 183 L 143 203 L 179 207 L 214 204 L 250 197 L 250 251 L 214 251 L 179 251 L 143 251 L 107 251 L 71 251 L 36 251 L 0 251 Z" stroke-linecap="round" />
</g>
		<g transform="matrix(1 0 0 1 0 100.5)"  >
<path style="stroke: none; stroke-width: 1; stroke-dasharray: none; stroke-linecap: butt; stroke-dashoffset: 0; stroke-linejoin: miter; stroke-miterlimit: 4; fill: rgb(94,175,148); fill-rule: nonzero; opacity: 1;" vector-effect="non-scaling-stroke"  transform=" translate(-125, -226)" d="M 0 223 L 36 218 L 71 225 L 107 208 L 143 209 L 179 201 L 214 204 L 250 210 L 250 251 L 214 251 L 179 251 L 143 251 L 107 251 L 71 251 L 36 251 L 0 251 Z" stroke-linecap="round" />
</g>
		<g transform="matrix(1 0 0 1 0 110)"  >
<path style="stroke: none; stroke-width: 1; stroke-dasharray: none; stroke-linecap: butt; stroke-dashoffset: 0; stroke-linejoin: miter; stroke-miterlimit: 4; fill: rgb(0,148,115); fill-rule: nonzero; opacity: 1;" vector-effect="non-scaling-stroke"  transform=" translate(-125, -235.5)" d="M 0 231 L 36 220 L 71 224 L 107 220 L 143 228 L 179 231 L 214 223 L 250 222 L 250 251 L 214 251 L 179 251 L 143 251 L 107 251 L 71 251 L 36 251 L 0 251 Z" stroke-linecap="round" />
</g>
</g>
</g>
<g transform="matrix(0.69 0 0 0.69 540 495.13)" style="" id="4c7ecc1a-1b24-44a8-b7b8-b107de6c1a36"  >
		<text xml:space="preserve" font-family="Raleway" font-size="200" font-style="normal" font-weight="900" style="stroke: none; stroke-width: 1; stroke-dasharray: none; stroke-linecap: butt; stroke-dashoffset: 0; stroke-linejoin: miter; stroke-miterlimit: 4; fill: rgb(203,229,218); fill-rule: nonzero; opacity: 1; white-space: pre;" ><tspan x="-69.1" y="62.83" >C</tspan></text>
</g>
</svg>