<svg xmlns="http://www.w3.org/2000/svg" xmlns:xlink="http://www.w3.org/1999/xlink" version="1.1" x="0px" y="0px" viewBox="0 0 100 125" style="enable-background:new 0 0 100 100;" xml:space="preserve"><g><path d="M51.8209839,52.9031372V66.15625c2.4277344,0,4.2648315-0.5083008,5.5113525-1.5252686   s1.8693848-2.5206299,1.8693848-4.5109253c0-2.0114746-0.5736084-3.5753784-1.7217407-4.6907959   C56.3319092,54.3138428,54.4455566,53.4720459,51.8209839,52.9031372z"/><path d="M50,2.5C23.7664795,2.5,2.5,23.7664795,2.5,50S23.7664795,97.5,50,97.5S97.5,76.2335205,97.5,50S76.2335205,2.5,50,2.5z    M63.0567017,69.4859619c-2.7671509,2.4603882-6.5117798,3.7455444-11.2357178,3.8546143V80h-4.1663818v-6.6594238   c-3.1489868-0.3059082-5.9492188-1.1531982-8.3981323-2.5422974c-2.4489136-1.3886719-4.6033936-3.3407593-6.4625854-5.855896   l5.4459839-5.3798218c1.5749512,2.0339966,3.1218262,3.5647583,4.6416016,4.5928345   c1.5197754,1.0280151,3.1107788,1.6185913,4.7731323,1.7713623V51.5581665   c-5.0302124-1.0712891-8.7316284-2.7336426-11.104187-4.986084c-2.3734131-2.2525024-3.5596924-5.2160645-3.5596924-8.8903198   c0-3.8490601,1.3008423-6.9382324,3.9041748-9.2675171c2.6025391-2.3288574,6.1885376-3.6135254,10.7597046-3.8545532V20h4.1663818   v4.5596924c2.7773438,0.2626343,5.2975464,0.9737549,7.5614624,2.1324463   c2.2631226,1.1595459,4.3793945,2.8214111,6.3480225,4.9865112l-5.3144531,5.5767212   c-1.2686157-1.7713623-2.5974121-3.1108398-3.9856567-4.0187988c-1.3890991-0.9071045-2.9258423-1.4268188-4.609375-1.5579224   v13.0562744c5.5325928,1.3776245,9.480896,3.2261963,11.8424072,5.5440674   c2.3624268,2.3182373,3.5427246,5.456604,3.5427246,9.4146729C67.2061157,63.7616577,65.822998,67.0256348,63.0567017,69.4859619z"/><path d="M40.4707642,37.1242676c0,1.7055664,0.5574951,3.039917,1.6724854,4.0021973   c1.1158447,0.9622803,2.9529419,1.6950073,5.5113525,2.1977539v-11.973938   c-2.340332,0.1098633-4.1222534,0.656311-5.3467407,1.6402588C41.0825195,33.9748535,40.4707642,35.352478,40.4707642,37.1242676z"/></g><text x="0" y="115" fill="#000000" font-size="5px" font-weight="bold" font-family="'Helvetica Neue', Helvetica, Arial-Unicode, Arial, Sans-serif">Created by sapon prayetno</text><text x="0" y="120" fill="#000000" font-size="5px" font-weight="bold" font-family="'Helvetica Neue', Helvetica, Arial-Unicode, Arial, Sans-serif">from the Noun Project</text></svg>